# xmcd
#
# Track frame offsets: 
#        150
#        8366
#        20516
#        41656
#        55151
#        67618
#        79627
#        90738
#        108159
#        123014
#        133876
#        159644
#        173051
#
# Disc length: 2377 seconds
#
# Revision: 1
# Processed by: cddbd v1.5PL3 Copyright (c) Steve Scherf et al.
# Submitted via: ExactAudioCopy v0.95a5
#
DISCID=9109470d
DTITLE=The Fabulous Thunderbirds - Tacos Deluxe
DYEAR=2003
DGENRE=Blues
TTITLE0=You Ain't Nothin' But Fine
TTITLE1=Marked Deck
TTITLE2=Wait On Time (Live)
TTITLE3=She's Tuff
TTITLE4=Can't Tear It Up Enuff'
TTITLE5=One Too Many
TTITLE6=I Believe I'm In Love
TTITLE7=Scratch My Back
TTITLE8=Low-Down Woman
TTITLE9=My Babe
TTITLE10=I Can't Quit You Baby (Live)
TTITLE11=C-Boy's Blues
TTITLE12=Los Fabulous Thunderbirds
EXTD=YEAR: 2000
EXTT0=
EXTT1=
EXTT2=
EXTT3=
EXTT4=
EXTT5=
EXTT6=
EXTT7=
EXTT8=
EXTT9=
EXTT10=
EXTT11=
EXTT12=
PLAYORDER=
